<svg id="svg4593" height="512" viewBox="0 0 16.933333 16.933334" width="512" xmlns="http://www.w3.org/2000/svg" xmlns:svg="http://www.w3.org/2000/svg"><clipPath id="clipPath5337"><path id="rect5339" d="m34.774 274.321h35.435v25.702h-35.435z"/></clipPath><clipPath id="clipPath4542"><path id="rect4544" d="m-535.214-48.848h501.574v185.586h-501.574z"/></clipPath><clipPath id="clipPath11017"><path id="rect11019" d="m36.669 153.503h29.654v28.999h-29.654z" transform="rotate(-90)" vector-effect="none"/></clipPath><clipPath id="clipPath11444"><path id="rect11446" d="m-143.933 265.779h28.84v29.104h-28.84z" transform="rotate(-90)" vector-effect="none"/></clipPath><clipPath id="clipPath11781"><rect id="rect11783" height="32.411" rx=".634" transform="rotate(-90)" width="32.941" x="-145.124" y="181.377"/></clipPath><clipPath id="clipPath11499"><path id="rect11501" d="m-551.399-9.261h16.064v16.347h-16.064z" vector-effect="none"/></clipPath><g id="layer1" transform="translate(0 -280.067)"><path id="path18161-2-5-4-5-0" d="m4.51803 280.58537c-3.17118 0-5.10821 3.53725-3.28028 8.93263 1.89474 5.59255 2.04687 6.94722 3.66404 6.94722 2.5356 0 1.41341-5.0618 3.564951-5.0618 2.151529 0 1.02934 5.0618 3.564939 5.0618 1.61718 0 1.76931-1.35467 3.66405-6.94722 1.82793-5.39538-.10911-8.93263-3.28028-8.93263-2.42232.0318-2.15466 2.24953-3.948709 2.24953-1.79406 0-1.52639-2.21781-3.948711-2.24953z" fill="#d1dcff" vector-effect="none"/><path id="path18187-1-3-1-57-1" d="m10.49064 281.39954c-.613749.64423-.951669 1.43536-2.023899 1.43536-.33317 0-.59469-.0766-.816081-.20142-.863479-.0439-1.67074-.16622-1.67074-.16622-.900949-.14935-1.10808 1.28414-.20618 1.42691 1.4958.31002 4.042231.62256 5.3268-1.42691.25136-.48583-.0868-1.07792-.6099-1.06772z" fill="#bfd2ff" font-variant-ligatures="normal" font-variant-position="normal" font-variant-caps="normal" font-variant-numeric="normal" font-variant-alternates="normal" font-feature-settings="normal" text-indent="0" text-align="start" text-decoration-line="none" text-decoration-style="solid" text-decoration-color="#000000" text-transform="none" text-orientation="mixed" white-space="normal" shape-padding="0" isolation="auto" mix-blend-mode="normal" solid-color="#000000" solid-opacity="1" vector-effect="none"/><path id="path18525-7-9-3-6" d="m6.289091 292.60684s-.426901 1.81415-.68161 2.404c-.33703.8276-1.13298.80656-1.420071.16794-.17979-.42878-.78549-.43392-.97255-.008.46177.96948.901261 1.2945 1.68672 1.2945 1.80096 0 1.754101-2.54952 2.35438-4.02715-.30307-.37797-.86861-.24318-.966869.16899zm7.186009.47198c-.16335.56066-.47032 1.43941-.64377 1.84107-.30606.70755-1.0649.91264-1.38648.25889-.18037-.42987-.78821-.43342-.97358-.006.28918.73787.72446 1.29191 1.56062 1.29191 1.21134 0 1.60071-.76098 2.51613-3.49281-.12806-.43412-.8745-.53164-1.07292.10662z" fill="#bfd2ff" font-variant-ligatures="normal" font-variant-position="normal" font-variant-caps="normal" font-variant-numeric="normal" font-variant-alternates="normal" font-feature-settings="normal" text-indent="0" text-align="start" text-decoration-line="none" text-decoration-style="solid" text-decoration-color="#000000" text-transform="none" text-orientation="mixed" white-space="normal" shape-padding="0" isolation="auto" mix-blend-mode="normal" solid-color="#000000" solid-opacity="1" vector-effect="none"/><path id="path6324-4" d="m10.72547 286.78112c.25751.009.41497.23089.41806.54053-.0181.83828-.43024 1.63759-1.141019 2.13527-.46095.32276-.99854.48421-1.53582.48421-.537281 0-1.074871-.16145-1.53582-.48421-.710781-.49768-1.122951-1.29699-1.141021-2.13527.004-.41286.28277-.67036.706931-.47336.68688.26827 1.34517.38778 1.96991.39378.624739-.006 1.283029-.12551 1.969909-.39378.10604-.0493.20303-.0701.28887-.0672z" fill="#55a1ff" vector-effect="none"/><path id="path6497-3" d="m10.23051 287.87613c-.376919.82778-.91782 1.41691-1.970419 1.22629-.40396-.0548-.715621.34846-.560691.72553.25015.0748.50882.11317.767401.11317.537279 0 1.07486-.16144 1.53582-.4842.614259-.43011 1.003939-1.08567 1.110529-1.79679-.32005-.19235-.72246-.17296-.88264.216z" fill="#488bff" font-variant-ligatures="normal" font-variant-position="normal" font-variant-caps="normal" font-variant-numeric="normal" font-variant-alternates="normal" font-feature-settings="normal" text-indent="0" text-align="start" text-decoration-line="none" text-decoration-style="solid" text-decoration-color="#000000" text-transform="none" text-orientation="mixed" white-space="normal" shape-padding="0" isolation="auto" mix-blend-mode="normal" solid-color="#000000" solid-opacity="1" vector-effect="none"/><g fill="#666"><path id="path6504-6" d="m4.371224 284.62198c.257869-.25787.607973-.40235.972656-.40235.364684 0 .714787.14448.972657.40235.249999.25-.125.625-.375.375-.158776-.15878-.373115-.24805-.597657-.24805-.224543 0-.438881.0893-.597656.24805-.275078.2492-.6209-.1447-.375-.375z" font-variant-ligatures="normal" font-variant-position="normal" font-variant-caps="normal" font-variant-numeric="normal" font-variant-alternates="normal" font-feature-settings="normal" text-indent="0" text-align="start" text-decoration-line="none" text-decoration-style="solid" text-decoration-color="#000000" text-transform="none" text-orientation="mixed" white-space="normal" shape-padding="0" isolation="auto" mix-blend-mode="normal" solid-color="#000000" solid-opacity="1" vector-effect="none"/><path id="path6506-8" d="m10.172006 284.66885c.257869-.25787.606019-.40234.970702-.40234s.714786.14447.972656.40234c.266285.24852-.123135.63998-.373047.375-.158775-.15877-.375066-.24805-.599609-.24805s-.438881.0893-.597656.24805c-.288423.28561-.621742-.13186-.373046-.375z" font-variant-ligatures="normal" font-variant-position="normal" font-variant-caps="normal" font-variant-numeric="normal" font-variant-alternates="normal" font-feature-settings="normal" text-indent="0" text-align="start" text-decoration-line="none" text-decoration-style="solid" text-decoration-color="#000000" text-transform="none" text-orientation="mixed" white-space="normal" shape-padding="0" isolation="auto" mix-blend-mode="normal" solid-color="#000000" solid-opacity="1" vector-effect="none"/></g></g></svg>