<svg xmlns="http://www.w3.org/2000/svg" xmlns:xlink="http://www.w3.org/1999/xlink" width="337" zoomAndPan="magnify" viewBox="0 0 252.75 165.750002" height="221" preserveAspectRatio="xMidYMid meet" version="1.2"><defs><clipPath id="7544aa4e03"><path d="M 0.0664062 92 L 251 92 L 251 165.5 L 0.0664062 165.5 Z M 0.0664062 92 "/></clipPath><clipPath id="5c29a56e35"><path d="M 0.0664062 4 L 55 4 L 55 54 L 0.0664062 54 Z M 0.0664062 4 "/></clipPath><clipPath id="0078190060"><path d="M 0.0664062 4 L 55 4 L 55 54 L 0.0664062 54 Z M 0.0664062 4 "/></clipPath><clipPath id="02f75b8c53"><rect x="0" width="251" y="0" height="74"/></clipPath><clipPath id="a9c270ae54"><path d="M 16.554688 64 L 235.972656 64 L 235.972656 87 L 16.554688 87 Z M 16.554688 64 "/></clipPath></defs><g id="d9bba0a2bf"><g clip-rule="nonzero" clip-path="url(#7544aa4e03)"><g transform="matrix(1,0,0,1,0.000000000000000014,92)"><g clip-path="url(#02f75b8c53)"><g clip-rule="nonzero" clip-path="url(#5c29a56e35)"><g style="fill:#81a969;fill-opacity:0.4;"><g transform="translate(-0.100392, 53.358599)"><path style="stroke:none" d="M 43.796875 0 L 41.5 -28.859375 L 41.203125 -28.859375 L 31.234375 -0.296875 L 24.609375 -0.296875 L 14.640625 -28.859375 L 14.34375 -28.859375 L 12.046875 0 L 0.9375 0 L 5.3125 -48.703125 L 17.125 -48.703125 L 27.921875 -20.609375 L 38.71875 -48.703125 L 50.53125 -48.703125 L 54.90625 0 Z M 43.796875 0 "/></g></g></g><g style="fill:#81a969;fill-opacity:0.4;"><g transform="translate(52.614787, 53.358599)"><path style="stroke:none" d="M 5.609375 -3.734375 C 2.773438 -6.828125 1.359375 -10.617188 1.359375 -15.109375 C 1.359375 -19.597656 2.773438 -23.394531 5.609375 -26.5 C 8.441406 -29.613281 12.039062 -31.171875 16.40625 -31.171875 C 20.425781 -31.171875 23.734375 -29.910156 26.328125 -27.390625 L 26.328125 -30.28125 L 36.78125 -30.28125 L 36.78125 0 L 26.453125 0 L 26.453125 -3.421875 L 26.328125 -3.421875 C 23.734375 -0.546875 20.425781 0.890625 16.40625 0.890625 C 12.039062 0.890625 8.441406 -0.648438 5.609375 -3.734375 Z M 14.484375 -20.234375 C 13.128906 -18.898438 12.453125 -17.191406 12.453125 -15.109375 C 12.453125 -13.023438 13.101562 -11.320312 14.40625 -10 C 15.707031 -8.6875 17.421875 -8.03125 19.546875 -8.03125 C 21.585938 -8.03125 23.265625 -8.695312 24.578125 -10.03125 C 25.898438 -11.375 26.5625 -13.066406 26.5625 -15.109375 C 26.5625 -17.191406 25.878906 -18.898438 24.515625 -20.234375 C 23.160156 -21.578125 21.503906 -22.25 19.546875 -22.25 C 17.535156 -22.25 15.847656 -21.578125 14.484375 -20.234375 Z M 14.484375 -20.234375 "/></g></g><g style="fill:#81a969;fill-opacity:0.4;"><g transform="translate(89.804548, 53.358599)"><path style="stroke:none" d="M 21.484375 -49.59375 C 24.117188 -49.59375 26.695312 -49.207031 29.21875 -48.4375 C 31.738281 -47.664062 33.609375 -46.90625 34.828125 -46.15625 L 36.59375 -44.984375 L 32.109375 -36.125 C 31.753906 -36.363281 31.257812 -36.671875 30.625 -37.046875 C 30 -37.421875 28.820312 -37.921875 27.09375 -38.546875 C 25.363281 -39.171875 23.75 -39.484375 22.25 -39.484375 C 20.40625 -39.484375 18.976562 -39.085938 17.96875 -38.296875 C 16.96875 -37.515625 16.46875 -36.457031 16.46875 -35.125 C 16.46875 -34.457031 16.703125 -33.835938 17.171875 -33.265625 C 17.648438 -32.691406 18.457031 -32.078125 19.59375 -31.421875 C 20.738281 -30.773438 21.742188 -30.253906 22.609375 -29.859375 C 23.472656 -29.472656 24.8125 -28.882812 26.625 -28.09375 C 29.769531 -26.757812 32.453125 -24.941406 34.671875 -22.640625 C 36.898438 -20.335938 38.015625 -17.726562 38.015625 -14.8125 C 38.015625 -12.019531 37.507812 -9.582031 36.5 -7.5 C 35.5 -5.414062 34.125 -3.78125 32.375 -2.59375 C 30.625 -1.414062 28.6875 -0.539062 26.5625 0.03125 C 24.4375 0.601562 22.132812 0.890625 19.65625 0.890625 C 17.53125 0.890625 15.441406 0.671875 13.390625 0.234375 C 11.347656 -0.191406 9.640625 -0.726562 8.265625 -1.375 C 6.890625 -2.03125 5.648438 -2.671875 4.546875 -3.296875 C 3.441406 -3.929688 2.632812 -4.46875 2.125 -4.90625 L 1.359375 -5.546875 L 6.90625 -14.875 C 7.375 -14.476562 8.019531 -13.972656 8.84375 -13.359375 C 9.675781 -12.753906 11.144531 -11.941406 13.25 -10.921875 C 15.351562 -9.898438 17.210938 -9.390625 18.828125 -9.390625 C 23.515625 -9.390625 25.859375 -10.984375 25.859375 -14.171875 C 25.859375 -14.835938 25.691406 -15.457031 25.359375 -16.03125 C 25.023438 -16.601562 24.429688 -17.171875 23.578125 -17.734375 C 22.734375 -18.304688 21.984375 -18.757812 21.328125 -19.09375 C 20.679688 -19.425781 19.617188 -19.9375 18.140625 -20.625 C 16.671875 -21.320312 15.582031 -21.847656 14.875 -22.203125 C 11.925781 -23.648438 9.644531 -25.46875 8.03125 -27.65625 C 6.414062 -29.84375 5.609375 -32.191406 5.609375 -34.703125 C 5.609375 -39.078125 7.222656 -42.648438 10.453125 -45.421875 C 13.679688 -48.203125 17.359375 -49.59375 21.484375 -49.59375 Z M 21.484375 -49.59375 "/></g></g><g style="fill:#81a969;fill-opacity:0.4;"><g transform="translate(126.344956, 53.358599)"><path style="stroke:none" d="M 5.609375 -3.734375 C 2.773438 -6.828125 1.359375 -10.617188 1.359375 -15.109375 C 1.359375 -19.597656 2.773438 -23.394531 5.609375 -26.5 C 8.441406 -29.613281 12.039062 -31.171875 16.40625 -31.171875 C 20.425781 -31.171875 23.734375 -29.910156 26.328125 -27.390625 L 26.328125 -30.28125 L 36.78125 -30.28125 L 36.78125 0 L 26.453125 0 L 26.453125 -3.421875 L 26.328125 -3.421875 C 23.734375 -0.546875 20.425781 0.890625 16.40625 0.890625 C 12.039062 0.890625 8.441406 -0.648438 5.609375 -3.734375 Z M 14.484375 -20.234375 C 13.128906 -18.898438 12.453125 -17.191406 12.453125 -15.109375 C 12.453125 -13.023438 13.101562 -11.320312 14.40625 -10 C 15.707031 -8.6875 17.421875 -8.03125 19.546875 -8.03125 C 21.585938 -8.03125 23.265625 -8.695312 24.578125 -10.03125 C 25.898438 -11.375 26.5625 -13.066406 26.5625 -15.109375 C 26.5625 -17.191406 25.878906 -18.898438 24.515625 -20.234375 C 23.160156 -21.578125 21.503906 -22.25 19.546875 -22.25 C 17.535156 -22.25 15.847656 -21.578125 14.484375 -20.234375 Z M 14.484375 -20.234375 "/></g></g><g style="fill:#81a969;fill-opacity:0.4;"><g transform="translate(163.534717, 53.358599)"><path style="stroke:none" d="M 3.546875 0 L 3.546875 -50.765625 L 13.984375 -50.765625 L 13.984375 0 Z M 3.546875 0 "/></g></g><g style="fill:#81a969;fill-opacity:0.4;"><g transform="translate(177.938123, 53.358599)"><path style="stroke:none" d="M 6.40625 -3.59375 C 3.039062 -6.59375 1.359375 -10.429688 1.359375 -15.109375 C 1.359375 -19.796875 3.109375 -23.644531 6.609375 -26.65625 C 10.109375 -29.664062 14.4375 -31.171875 19.59375 -31.171875 C 24.675781 -31.171875 28.957031 -29.65625 32.4375 -26.625 C 35.914062 -23.59375 37.65625 -19.753906 37.65625 -15.109375 C 37.65625 -10.460938 35.953125 -6.632812 32.546875 -3.625 C 29.148438 -0.613281 24.832031 0.890625 19.59375 0.890625 C 14.164062 0.890625 9.769531 -0.601562 6.40625 -3.59375 Z M 14.484375 -20.234375 C 13.128906 -18.898438 12.453125 -17.191406 12.453125 -15.109375 C 12.453125 -13.023438 13.101562 -11.320312 14.40625 -10 C 15.707031 -8.6875 17.421875 -8.03125 19.546875 -8.03125 C 21.585938 -8.03125 23.265625 -8.695312 24.578125 -10.03125 C 25.898438 -11.375 26.5625 -13.066406 26.5625 -15.109375 C 26.5625 -17.191406 25.878906 -18.898438 24.515625 -20.234375 C 23.160156 -21.578125 21.503906 -22.25 19.546875 -22.25 C 17.535156 -22.25 15.847656 -21.578125 14.484375 -20.234375 Z M 14.484375 -20.234375 "/></g></g><g style="fill:#81a969;fill-opacity:0.4;"><g transform="translate(213.829178, 53.358599)"><path style="stroke:none" d="M 3.546875 0 L 3.546875 -30.28125 L 13.984375 -30.28125 L 13.984375 -27.09375 L 14.109375 -27.09375 C 16.828125 -29.8125 19.71875 -31.171875 22.78125 -31.171875 C 24.28125 -31.171875 25.765625 -30.972656 27.234375 -30.578125 C 28.710938 -30.179688 30.128906 -29.570312 31.484375 -28.75 C 32.847656 -27.925781 33.953125 -26.753906 34.796875 -25.234375 C 35.640625 -23.722656 36.0625 -21.960938 36.0625 -19.953125 L 36.0625 0 L 25.625 0 L 25.625 -17.125 C 25.625 -18.695312 25.117188 -20.070312 24.109375 -21.25 C 23.109375 -22.425781 21.800781 -23.015625 20.1875 -23.015625 C 18.613281 -23.015625 17.1875 -22.40625 15.90625 -21.1875 C 14.625 -19.96875 13.984375 -18.613281 13.984375 -17.125 L 13.984375 0 Z M 3.546875 0 "/></g></g><g clip-rule="nonzero" clip-path="url(#0078190060)"><g style="fill:#ffffff;fill-opacity:1;"><g transform="translate(-0.100392, 53.358599)"><path style="stroke:none" d="M 43.796875 0 L 41.5 -28.859375 L 41.203125 -28.859375 L 31.234375 -0.296875 L 24.609375 -0.296875 L 14.640625 -28.859375 L 14.34375 -28.859375 L 12.046875 0 L 0.9375 0 L 5.3125 -48.703125 L 17.125 -48.703125 L 27.921875 -20.609375 L 38.71875 -48.703125 L 50.53125 -48.703125 L 54.90625 0 Z M 43.796875 0 "/></g></g></g><g style="fill:#ffffff;fill-opacity:1;"><g transform="translate(52.614787, 53.358599)"><path style="stroke:none" d="M 5.609375 -3.734375 C 2.773438 -6.828125 1.359375 -10.617188 1.359375 -15.109375 C 1.359375 -19.597656 2.773438 -23.394531 5.609375 -26.5 C 8.441406 -29.613281 12.039062 -31.171875 16.40625 -31.171875 C 20.425781 -31.171875 23.734375 -29.910156 26.328125 -27.390625 L 26.328125 -30.28125 L 36.78125 -30.28125 L 36.78125 0 L 26.453125 0 L 26.453125 -3.421875 L 26.328125 -3.421875 C 23.734375 -0.546875 20.425781 0.890625 16.40625 0.890625 C 12.039062 0.890625 8.441406 -0.648438 5.609375 -3.734375 Z M 14.484375 -20.234375 C 13.128906 -18.898438 12.453125 -17.191406 12.453125 -15.109375 C 12.453125 -13.023438 13.101562 -11.320312 14.40625 -10 C 15.707031 -8.6875 17.421875 -8.03125 19.546875 -8.03125 C 21.585938 -8.03125 23.265625 -8.695312 24.578125 -10.03125 C 25.898438 -11.375 26.5625 -13.066406 26.5625 -15.109375 C 26.5625 -17.191406 25.878906 -18.898438 24.515625 -20.234375 C 23.160156 -21.578125 21.503906 -22.25 19.546875 -22.25 C 17.535156 -22.25 15.847656 -21.578125 14.484375 -20.234375 Z M 14.484375 -20.234375 "/></g></g><g style="fill:#ffffff;fill-opacity:1;"><g transform="translate(89.804548, 53.358599)"><path style="stroke:none" d="M 21.484375 -49.59375 C 24.117188 -49.59375 26.695312 -49.207031 29.21875 -48.4375 C 31.738281 -47.664062 33.609375 -46.90625 34.828125 -46.15625 L 36.59375 -44.984375 L 32.109375 -36.125 C 31.753906 -36.363281 31.257812 -36.671875 30.625 -37.046875 C 30 -37.421875 28.820312 -37.921875 27.09375 -38.546875 C 25.363281 -39.171875 23.75 -39.484375 22.25 -39.484375 C 20.40625 -39.484375 18.976562 -39.085938 17.96875 -38.296875 C 16.96875 -37.515625 16.46875 -36.457031 16.46875 -35.125 C 16.46875 -34.457031 16.703125 -33.835938 17.171875 -33.265625 C 17.648438 -32.691406 18.457031 -32.078125 19.59375 -31.421875 C 20.738281 -30.773438 21.742188 -30.253906 22.609375 -29.859375 C 23.472656 -29.472656 24.8125 -28.882812 26.625 -28.09375 C 29.769531 -26.757812 32.453125 -24.941406 34.671875 -22.640625 C 36.898438 -20.335938 38.015625 -17.726562 38.015625 -14.8125 C 38.015625 -12.019531 37.507812 -9.582031 36.5 -7.5 C 35.5 -5.414062 34.125 -3.78125 32.375 -2.59375 C 30.625 -1.414062 28.6875 -0.539062 26.5625 0.03125 C 24.4375 0.601562 22.132812 0.890625 19.65625 0.890625 C 17.53125 0.890625 15.441406 0.671875 13.390625 0.234375 C 11.347656 -0.191406 9.640625 -0.726562 8.265625 -1.375 C 6.890625 -2.03125 5.648438 -2.671875 4.546875 -3.296875 C 3.441406 -3.929688 2.632812 -4.46875 2.125 -4.90625 L 1.359375 -5.546875 L 6.90625 -14.875 C 7.375 -14.476562 8.019531 -13.972656 8.84375 -13.359375 C 9.675781 -12.753906 11.144531 -11.941406 13.25 -10.921875 C 15.351562 -9.898438 17.210938 -9.390625 18.828125 -9.390625 C 23.515625 -9.390625 25.859375 -10.984375 25.859375 -14.171875 C 25.859375 -14.835938 25.691406 -15.457031 25.359375 -16.03125 C 25.023438 -16.601562 24.429688 -17.171875 23.578125 -17.734375 C 22.734375 -18.304688 21.984375 -18.757812 21.328125 -19.09375 C 20.679688 -19.425781 19.617188 -19.9375 18.140625 -20.625 C 16.671875 -21.320312 15.582031 -21.847656 14.875 -22.203125 C 11.925781 -23.648438 9.644531 -25.46875 8.03125 -27.65625 C 6.414062 -29.84375 5.609375 -32.191406 5.609375 -34.703125 C 5.609375 -39.078125 7.222656 -42.648438 10.453125 -45.421875 C 13.679688 -48.203125 17.359375 -49.59375 21.484375 -49.59375 Z M 21.484375 -49.59375 "/></g></g><g style="fill:#ffffff;fill-opacity:1;"><g transform="translate(126.344956, 53.358599)"><path style="stroke:none" d="M 5.609375 -3.734375 C 2.773438 -6.828125 1.359375 -10.617188 1.359375 -15.109375 C 1.359375 -19.597656 2.773438 -23.394531 5.609375 -26.5 C 8.441406 -29.613281 12.039062 -31.171875 16.40625 -31.171875 C 20.425781 -31.171875 23.734375 -29.910156 26.328125 -27.390625 L 26.328125 -30.28125 L 36.78125 -30.28125 L 36.78125 0 L 26.453125 0 L 26.453125 -3.421875 L 26.328125 -3.421875 C 23.734375 -0.546875 20.425781 0.890625 16.40625 0.890625 C 12.039062 0.890625 8.441406 -0.648438 5.609375 -3.734375 Z M 14.484375 -20.234375 C 13.128906 -18.898438 12.453125 -17.191406 12.453125 -15.109375 C 12.453125 -13.023438 13.101562 -11.320312 14.40625 -10 C 15.707031 -8.6875 17.421875 -8.03125 19.546875 -8.03125 C 21.585938 -8.03125 23.265625 -8.695312 24.578125 -10.03125 C 25.898438 -11.375 26.5625 -13.066406 26.5625 -15.109375 C 26.5625 -17.191406 25.878906 -18.898438 24.515625 -20.234375 C 23.160156 -21.578125 21.503906 -22.25 19.546875 -22.25 C 17.535156 -22.25 15.847656 -21.578125 14.484375 -20.234375 Z M 14.484375 -20.234375 "/></g></g><g style="fill:#ffffff;fill-opacity:1;"><g transform="translate(163.534717, 53.358599)"><path style="stroke:none" d="M 3.546875 0 L 3.546875 -50.765625 L 13.984375 -50.765625 L 13.984375 0 Z M 3.546875 0 "/></g></g><g style="fill:#ffffff;fill-opacity:1;"><g transform="translate(177.938123, 53.358599)"><path style="stroke:none" d="M 6.40625 -3.59375 C 3.039062 -6.59375 1.359375 -10.429688 1.359375 -15.109375 C 1.359375 -19.796875 3.109375 -23.644531 6.609375 -26.65625 C 10.109375 -29.664062 14.4375 -31.171875 19.59375 -31.171875 C 24.675781 -31.171875 28.957031 -29.65625 32.4375 -26.625 C 35.914062 -23.59375 37.65625 -19.753906 37.65625 -15.109375 C 37.65625 -10.460938 35.953125 -6.632812 32.546875 -3.625 C 29.148438 -0.613281 24.832031 0.890625 19.59375 0.890625 C 14.164062 0.890625 9.769531 -0.601562 6.40625 -3.59375 Z M 14.484375 -20.234375 C 13.128906 -18.898438 12.453125 -17.191406 12.453125 -15.109375 C 12.453125 -13.023438 13.101562 -11.320312 14.40625 -10 C 15.707031 -8.6875 17.421875 -8.03125 19.546875 -8.03125 C 21.585938 -8.03125 23.265625 -8.695312 24.578125 -10.03125 C 25.898438 -11.375 26.5625 -13.066406 26.5625 -15.109375 C 26.5625 -17.191406 25.878906 -18.898438 24.515625 -20.234375 C 23.160156 -21.578125 21.503906 -22.25 19.546875 -22.25 C 17.535156 -22.25 15.847656 -21.578125 14.484375 -20.234375 Z M 14.484375 -20.234375 "/></g></g><g style="fill:#ffffff;fill-opacity:1;"><g transform="translate(213.829178, 53.358599)"><path style="stroke:none" d="M 3.546875 0 L 3.546875 -30.28125 L 13.984375 -30.28125 L 13.984375 -27.09375 L 14.109375 -27.09375 C 16.828125 -29.8125 19.71875 -31.171875 22.78125 -31.171875 C 24.28125 -31.171875 25.765625 -30.972656 27.234375 -30.578125 C 28.710938 -30.179688 30.128906 -29.570312 31.484375 -28.75 C 32.847656 -27.925781 33.953125 -26.753906 34.796875 -25.234375 C 35.640625 -23.722656 36.0625 -21.960938 36.0625 -19.953125 L 36.0625 0 L 25.625 0 L 25.625 -17.125 C 25.625 -18.695312 25.117188 -20.070312 24.109375 -21.25 C 23.109375 -22.425781 21.800781 -23.015625 20.1875 -23.015625 C 18.613281 -23.015625 17.1875 -22.40625 15.90625 -21.1875 C 14.625 -19.96875 13.984375 -18.613281 13.984375 -17.125 L 13.984375 0 Z M 3.546875 0 "/></g></g></g></g></g><g clip-rule="nonzero" clip-path="url(#a9c270ae54)"><path style=" stroke:none;fill-rule:evenodd;fill:#ffffff;fill-opacity:1;" d="M 16.5625 86.40625 C 23.722656 81.773438 34.214844 76.964844 47.148438 72.785156 C 47.847656 74.226562 48.402344 75.359375 49.738281 76.71875 C 35.898438 79.503906 25.992188 82.582031 16.5625 86.40625 Z M 171.011719 64.457031 C 199.988281 69.296875 223.414062 78.128906 236.207031 86.40625 C 219.246094 79.527344 195.03125 73.960938 165.539062 71.230469 C 167.683594 69.066406 169.03125 67.285156 171.011719 64.457031 Z M 171.011719 64.457031 "/></g><path style=" stroke:none;fill-rule:evenodd;fill:#00bf63;fill-opacity:1;" d="M 113.875 54.296875 C 128.011719 50.4375 137.089844 37.617188 139.847656 25.3125 C 142.230469 14.695312 124.113281 10.589844 127.722656 25.84375 C 128.894531 30.796875 127.6875 44.886719 113.875 54.296875 Z M 113.875 54.296875 "/><path style=" stroke:none;fill-rule:evenodd;fill:#00bf63;fill-opacity:1;" d="M 101.390625 50.53125 C 89.875 41.46875 86.511719 26.125 88.765625 13.71875 C 90.714844 3.007812 108.996094 6.289062 99.726562 18.929688 C 96.714844 23.035156 92.339844 36.480469 101.390625 50.53125 Z M 101.390625 50.53125 "/><path style=" stroke:none;fill-rule:evenodd;fill:#00bf63;fill-opacity:1;" d="M 116.683594 18.402344 C 121.765625 18.402344 125.886719 14.285156 125.886719 9.203125 C 125.886719 4.121094 121.765625 0 116.683594 0 C 111.601562 0 107.480469 4.121094 107.480469 9.203125 C 107.480469 14.285156 111.601562 18.402344 116.683594 18.402344 Z M 116.683594 18.402344 "/><path style=" stroke:none;fill-rule:evenodd;fill:#00bf63;fill-opacity:1;" d="M 59.34375 77.191406 C 64.101562 77.191406 67.957031 73.335938 67.957031 68.578125 C 67.957031 63.820312 64.101562 59.960938 59.34375 59.960938 C 54.585938 59.960938 50.726562 63.820312 50.726562 68.578125 C 50.726562 73.335938 54.585938 77.191406 59.34375 77.191406 Z M 177.960938 44.167969 C 158.820312 91.734375 132.832031 80.097656 110.1875 70.027344 C 79.574219 56.414062 72.722656 68.902344 115.019531 80.914062 C 40.808594 75.929688 75.285156 40.746094 112.859375 59.117188 C 132.4375 67 154.511719 83.269531 177.960938 44.167969 Z M 177.960938 44.167969 "/></g></svg>